HIERARCHY
ROOT Hips
{
  OFFSET 0.551 47.034 -238.507
  CHANNELS 6 Xposition Yposition Zposition Zrotation Xrotation Yrotation
  JOINT LeftUpLeg
  {
    OFFSET 6.327 -4.433 4.446
    CHANNELS 6 Xposition Yposition Zposition Zrotation Xrotation Yrotation
    JOINT LeftLeg
    {
      OFFSET -0.000 -48.159 0.000
      CHANNELS 6 Xposition Yposition Zposition Zrotation Xrotation Yrotation
      JOINT LeftFoot
      {
        OFFSET -0.000 -40.546 -0.000
        CHANNELS 6 Xposition Yposition Zposition Zrotation Xrotation Yrotation
        End Site
        {
          OFFSET 0.000 -7.814 4.511
        }
      }
    }
  }
  JOINT RightUpLeg
  {
    OFFSET -6.187 -4.344 5.210
    CHANNELS 6 Xposition Yposition Zposition Zrotation Xrotation Yrotation
    JOINT RightLeg
    {
      OFFSET -0.000 -48.187 0.000
      CHANNELS 6 Xposition Yposition Zposition Zrotation Xrotation Yrotation
      JOINT RightFoot
      {
        OFFSET 0.000 -40.569 -0.000
        CHANNELS 6 Xposition Yposition Zposition Zrotation Xrotation Yrotation
        End Site
        {
          OFFSET 0.000 -7.604 4.390
        }
      }
    }
  }
  JOINT Spine
  {
    OFFSET 0.000 4.344 -4.344
    CHANNELS 6 Xposition Yposition Zposition Zrotation Xrotation Yrotation
    JOINT LeftShoulder
    {
      OFFSET -0.000 27.303 -0.000
      CHANNELS 6 Xposition Yposition Zposition Zrotation Xrotation Yrotation
      JOINT LeftArm
      {
        OFFSET 13.955 0.000 -0.000
        CHANNELS 6 Xposition Yposition Zposition Zrotation Xrotation Yrotation
        JOINT LeftForeArm
        {
          OFFSET 20.587 0.000 0.000
          CHANNELS 6 Xposition Yposition Zposition Zrotation Xrotation Yrotation
          JOINT LeftHand
          {
            OFFSET 25.167 0.000 -0.000
            CHANNELS 6 Xposition Yposition Zposition Zrotation Xrotation Yrotation
            JOINT LeftHandThumb1
            {
            OFFSET 4.970 -0.620 3.390
            CHANNELS 6 Xposition Yposition Zposition Zrotation Xrotation Yrotation
              JOINT LeftHandThumb2
              {
              OFFSET 2.150 -0.000 0.000
              CHANNELS 6 Xposition Yposition Zposition Zrotation Xrotation Yrotation
                JOINT LeftHandThumb3
                {
                OFFSET 2.200 -0.000 0.000
                CHANNELS 6 Xposition Yposition Zposition Zrotation Xrotation Yrotation
                  JOINT LeftHandThumb4
                  {
                  OFFSET 1.700 -0.000 0.000
                  CHANNELS 6 Xposition Yposition Zposition Zrotation Xrotation Yrotation
                  }
                }
              }
            }
            JOINT LeftHandIndex1
            {
            OFFSET 8.730 0.680 2.070
            CHANNELS 6 Xposition Yposition Zposition Zrotation Xrotation Yrotation
              JOINT LeftHandIndex2
              {
              OFFSET 2.670 -0.000 0.000
              CHANNELS 6 Xposition Yposition Zposition Zrotation Xrotation Yrotation
                JOINT LeftHandIndex3
                {
                OFFSET 2.130 -0.000 0.000
                CHANNELS 6 Xposition Yposition Zposition Zrotation Xrotation Yrotation
                  JOINT LeftHandIndex4
                  {
                  OFFSET 1.800 -0.000 0.000
                  CHANNELS 6 Xposition Yposition Zposition Zrotation Xrotation Yrotation
                  }
                }
              }
            }
            JOINT LeftHandMiddle1
            {
            OFFSET 9.220 0.670 0.550
            CHANNELS 6 Xposition Yposition Zposition Zrotation Xrotation Yrotation
              JOINT LeftHandMiddle2
              {
              OFFSET 2.660 -0.000 0.000
              CHANNELS 6 Xposition Yposition Zposition Zrotation Xrotation Yrotation
                JOINT LeftHandMiddle3
                {
                OFFSET 2.280 -0.000 0.000
                CHANNELS 6 Xposition Yposition Zposition Zrotation Xrotation Yrotation
                  JOINT LeftHandMiddle4
                  {
                  OFFSET 1.500 -0.000 0.000
                  CHANNELS 6 Xposition Yposition Zposition Zrotation Xrotation Yrotation
                  }
                }
              }
            }
            JOINT LeftHandRing1
            {
            OFFSET 9.250 0.670 -1.130
            CHANNELS 6 Xposition Yposition Zposition Zrotation Xrotation Yrotation
              JOINT LeftHandRing2
              {
              OFFSET 2.470 -0.000 0.000
              CHANNELS 6 Xposition Yposition Zposition Zrotation Xrotation Yrotation
                JOINT LeftHandRing3
                {
                OFFSET 2.210 -0.000 0.000
                CHANNELS 6 Xposition Yposition Zposition Zrotation Xrotation Yrotation
                  JOINT LeftHandRing4
                  {
                  OFFSET 1.800 -0.000 0.000
                  CHANNELS 6 Xposition Yposition Zposition Zrotation Xrotation Yrotation
                  }
                }
              }
            }
            JOINT LeftHandPinky1
            {
            OFFSET 9.350 0.660 -2.720
            CHANNELS 6 Xposition Yposition Zposition Zrotation Xrotation Yrotation
              JOINT LeftHandPinky2
              {
              OFFSET 1.630 -0.000 0.000
              CHANNELS 6 Xposition Yposition Zposition Zrotation Xrotation Yrotation
                JOINT LeftHandPinky3
                {
                OFFSET 1.710 -0.000 0.000
                CHANNELS 6 Xposition Yposition Zposition Zrotation Xrotation Yrotation
                  JOINT LeftHandPinky4
                  {
                  OFFSET 1.800 -0.000 0.000
                  CHANNELS 6 Xposition Yposition Zposition Zrotation Xrotation Yrotation
                  }
                }
              }
            }
          }
        }
      }
    }
    JOINT RightShoulder
    {
      OFFSET -0.000 27.303 -0.000
      CHANNELS 6 Xposition Yposition Zposition Zrotation Xrotation Yrotation
      JOINT RightArm
      {
        OFFSET -16.169 0.000 -0.000
        CHANNELS 6 Xposition Yposition Zposition Zrotation Xrotation Yrotation
        JOINT RightForeArm
        {
          OFFSET -21.850 0.000 0.000
          CHANNELS 6 Xposition Yposition Zposition Zrotation Xrotation Yrotation
          JOINT RightHand
          {
            OFFSET -23.753 0.000 -0.000
            CHANNELS 6 Xposition Yposition Zposition Zrotation Xrotation Yrotation
            JOINT RightHandThumb1
            {
            OFFSET -4.970 -0.620 3.390
            CHANNELS 6 Xposition Yposition Zposition Zrotation Xrotation Yrotation
              JOINT RightHandThumb2
              {
              OFFSET -2.150 0.000 0.000
              CHANNELS 6 Xposition Yposition Zposition Zrotation Xrotation Yrotation
                JOINT RightHandThumb3
                {
                OFFSET -2.200 0.000 0.000
                CHANNELS 6 Xposition Yposition Zposition Zrotation Xrotation Yrotation
                  JOINT RightHandThumb4
                  {
                  OFFSET -1.700 0.000 0.000
                  CHANNELS 6 Xposition Yposition Zposition Zrotation Xrotation Yrotation
                  }
                }
              }
            }
            JOINT RightHandIndex1
            {
            OFFSET -8.730 0.680 2.070
            CHANNELS 6 Xposition Yposition Zposition Zrotation Xrotation Yrotation
              JOINT RightHandIndex2
              {
              OFFSET -2.670 0.000 0.000
              CHANNELS 6 Xposition Yposition Zposition Zrotation Xrotation Yrotation
                JOINT RightHandIndex3
                {
                OFFSET -2.130 0.000 0.000
                CHANNELS 6 Xposition Yposition Zposition Zrotation Xrotation Yrotation
                  JOINT RightHandIndex4
                  {
                  OFFSET -1.800 0.000 0.000
                  CHANNELS 6 Xposition Yposition Zposition Zrotation Xrotation Yrotation
                  }
                }
              }
            }
            JOINT RightHandMiddle1
            {
            OFFSET -9.220 0.670 0.550
            CHANNELS 6 Xposition Yposition Zposition Zrotation Xrotation Yrotation
              JOINT RightHandMiddle2
              {
              OFFSET -2.660 0.000 0.000
              CHANNELS 6 Xposition Yposition Zposition Zrotation Xrotation Yrotation
                JOINT RightHandMiddle3
                {
                OFFSET -2.280 0.000 0.000
                CHANNELS 6 Xposition Yposition Zposition Zrotation Xrotation Yrotation
                  JOINT RightHandMiddle4
                  {
                  OFFSET -1.500 0.000 0.000
                  CHANNELS 6 Xposition Yposition Zposition Zrotation Xrotation Yrotation
                  }
                }
              }
            }
            JOINT RightHandRing1
            {
            OFFSET -9.250 0.670 -1.130
            CHANNELS 6 Xposition Yposition Zposition Zrotation Xrotation Yrotation
              JOINT RightHandRing2
              {
              OFFSET -2.470 0.000 0.000
              CHANNELS 6 Xposition Yposition Zposition Zrotation Xrotation Yrotation
                JOINT RightHandRing3
                {
                OFFSET -2.210 0.000 0.000
                CHANNELS 6 Xposition Yposition Zposition Zrotation Xrotation Yrotation
                  JOINT RightHandRing4
                  {
                  OFFSET -1.800 0.000 0.000
                  CHANNELS 6 Xposition Yposition Zposition Zrotation Xrotation Yrotation
                  }
                }
              }
            }
            JOINT RightHandPinky1
            {
            OFFSET -9.350 0.660 -2.720
            CHANNELS 6 Xposition Yposition Zposition Zrotation Xrotation Yrotation
              JOINT RightHandPinky2
              {
              OFFSET -1.630 0.000 0.000
              CHANNELS 6 Xposition Yposition Zposition Zrotation Xrotation Yrotation
                JOINT RightHandPinky3
                {
                OFFSET -1.710 0.000 0.000
                CHANNELS 6 Xposition Yposition Zposition Zrotation Xrotation Yrotation
                  JOINT RightHandPinky4
                  {
                  OFFSET -1.800 0.000 0.000
                  CHANNELS 6 Xposition Yposition Zposition Zrotation Xrotation Yrotation
                  }
                }
              }
            }
          }
        }
      }
    }
    JOINT Neck
    {
      OFFSET -0.000 27.303 -0.000
      CHANNELS 6 Xposition Yposition Zposition Zrotation Xrotation Yrotation
      JOINT Head
      {
        OFFSET -0.000 18.976 -0.000
        CHANNELS 6 Xposition Yposition Zposition Zrotation Xrotation Yrotation
        End Site
        {
          OFFSET -0.000 0.076 -0.000
        }
      }
    }
  }
}
MOTION
Frames:	4
Frame Time:	0.0333333
-3.49788 42.841 -240.805 -1.19118 56.2063 -2.07897 7.15584 -4.36355 5.49809 15.239 -60.8737 10.1273 -1.49012e-06 -47.4757 7.15256e-05 -2.46297 23.473 9.30799e-07 -4.47035e-06 -40.3132 -9.53674e-05 13.7753 -8.79701 10.0042 -7.05037 -5.27412 5.88806 0.205344 -61.4132 -1.59869 0 -47.1573 4.76837e-05 1.44259 23.4537 9.30663e-07 -2.98023e-06 -40.2599 -2.38419e-05 -10.4299 -1.39439 -5.86153 7.45058e-07 3.94619 -3.9462 0.0628947 -48.1602 -0.0589337 -1.49012e-06 27.303 0 -8.10524 1.19528e-05 9.5821 15.5473 -1.78814e-05 2.38419e-05 -63.3104 43.6502 5.28639 19.8678 2.38419e-05 0 1.29146e-05 -1.16016e-05 -97.356 26.166 1.19209e-05 1.15484e-05 46.9746 2.35203 33.6309 0.0062 0.0497 0.0339 -37.4036 0 0 0 0.0215 0 0 -37.4036 0 0 0.022 0 0 -37.4036 0 0 0.017 0 0 0 0 -0.0068 0.0873 0.0207 -37.4036 0 0 0 0.0267 0 -66.4952 0 0 0 0.0213 0 -74.8071 0 0 0 0.018 0 0 0 0 -0.0067 0.0922 0.0055 -37.4036 0 0 0 0.0266 0 -66.4952 0 0 0 0.0228 0 -74.8071 0 0 0 0.015 0 0 0 0 -0.0067 0.0925 -0.0113 -37.4036 0 0 0 0.0247 0 -66.4952 0 0 0 0.0221 0 -74.8071 0 0 0 0.018 0 0 0 0 -0.0066 0.0935 -0.0272 -37.4036 0 0 0 0.0163 0 -66.4952 0 0 0 0.0171 0 -74.8071 0 0 0 0.018 0 0 0 0 -1.49012e-06 27.303 0 10.3412 1.70755e-06 -8.1636 -18.2254 -8.9407e-06 0 66.0207 40.5322 -12.5118 -19.9931 -3.57628e-05 -4.76837e-05 7.74066e-06 3.4151e-06 59.9736 -24.0792 1.19209e-05 2.38419e-05 2.66033 0.135881 11.1534 -0.0062 0.0497 0.0339 0 0 0 0 0.0215 0 0 0 0 0 0.022 0 0 0 0 0 0.017 0 0 0 0 0.0068 0.0873 0.0207 0 0 0 0 0.0267 0 0 0 0 0 0.0213 0 0 0 0 0 0.018 0 0 0 0 0.0067 0.0922 0.0055 0 0 0 0 0.0266 0 0 0 0 0 0.0228 0 0 0 0 0 0.015 0 0 0 0 0.0067 0.0925 -0.0113 0 0 0 0 0.0247 0 0 0 0 0 0.0221 0 0 0 0 0 0.018 0 0 0 0 0.0066 0.0935 -0.0272 0 0 0 0 0.0163 0 0 0 0 0 0.0171 0 0 0 0 0 0.018 0 0 0 0 -1.49012e-06 27.303 0 1.79216 12.2555 -0.380543 -2.23517e-06 17.2428 -4.76837e-05 1.01919e-05 -8.53774e-06 0 
-3.49792 43.4671 -240.827 -0.898281 55.791 -1.99598 7.10962 -4.4338 5.31889 13.273 -58.2029 9.32506 2.23517e-06 -47.6839 7.15256e-05 -1.68712 18.5112 1.12545e-06 -3.72529e-07 -40.1476 -4.76837e-05 13.1965 -8.6006 9.57935 -7.10957 -4.97577 5.70409 -0.67566 -58.1512 -1.32482 -2.98023e-06 -47.4838 -4.76837e-05 1.94755 17.9928 6.73256e-07 -1.49012e-06 -40.2584 4.76837e-05 -10.2444 -0.464609 -5.72198 1.49012e-06 4.01934 -4.01933 0.819219 -48.0225 0.604577 -1.49012e-06 27.303 2.38419e-05 -0.822872 1.53679e-05 10.4305 15.1473 4.47035e-05 -4.76837e-05 -71.3568 44.6723 5.60931 21.2274 0 7.15256e-05 5.77409e-05 -7.32195e-06 -98.4834 26.3196 -2.38419e-05 7.45058e-06 45.1108 2.16367 40.4487 0.0062 0.0497 0.0339 -41.176 0 0 0 0.0215 0 0 -41.176 0 0 0.022 0 0 -41.176 0 0 0.017 0 0 0 0 -0.0068 0.0873 0.0207 -41.176 0 0 0 0.0267 0 -73.2018 0 0 0 0.0213 0 -82.352 0 0 0 0.018 0 0 0 0 -0.0067 0.0922 0.0055 -41.176 0 0 0 0.0266 0 -73.2018 0 0 0 0.0228 0 -82.352 0 0 0 0.015 0 0 0 0 -0.0067 0.0925 -0.0113 -41.176 0 0 0 0.0247 0 -73.2018 0 0 0 0.0221 0 -82.352 0 0 0 0.018 0 0 0 0 -0.0066 0.0935 -0.0272 -41.176 0 0 0 0.0163 0 -73.2018 0 0 0 0.0171 0 -82.352 0 0 0 0.018 0 0 0 0 -1.49012e-06 27.303 2.38419e-05 -0.143978 2.56132e-06 -9.29587 -16.9769 1.19209e-05 2.38419e-05 76.1846 41.62 -13.1159 -21.7164 1.19209e-05 0 2.37024e-05 0 59.716 -22.8599 1.19209e-05 -1.19209e-05 4.01602 0.165758 9.37744 -0.0062 0.0497 0.0339 0 0 0 0 0.0215 0 0 0 0 0 0.022 0 0 0 0 0 0.017 0 0 0 0 0.0068 0.0873 0.0207 0 0 0 0 0.0267 0 0 0 0 0 0.0213 0 0 0 0 0 0.018 0 0 0 0 0.0067 0.0922 0.0055 0 0 0 0 0.0266 0 0 0 0 0 0.0228 0 0 0 0 0 0.015 0 0 0 0 0.0067 0.0925 -0.0113 0 0 0 0 0.0247 0 0 0 0 0 0.0221 0 0 0 0 0 0.018 0 0 0 0 0.0066 0.0935 -0.0272 0 0 0 0 0.0163 0 0 0 0 0 0.0171 0 0 0 0 0 0.018 0 0 0 0 -1.49012e-06 27.303 2.38419e-05 -0.307124 13.0696 0.0694538 -3.72529e-06 17.2973 -4.76837e-05 9.89843e-06 -1.19528e-05 1.06722e-07 
-3.48585 44.3478 -240.83 -2.62382 54.9842 -0.577247 7.00421 -4.47122 5.04787 13.3401 -54.6822 11.6268 -2.98023e-06 -48.123 0 -0.832924 12.9228 0.186286 2.23517e-06 -40.0501 7.15256e-05 11.6767 -8.48796 8.52129 -7.15399 -4.53894 5.43883 0.159099 -53.5428 0.847659 -7.45058e-07 -48.3619 -7.15256e-05 2.61286 10.7329 -0.48692 2.98023e-06 -40.2942 -2.38419e-05 -9.90655 0.809593 -5.44051 2.23517e-06 4.13415 -4.13415 -2.05954 -48.2936 -1.38724 -2.23517e-06 27.303 2.38419e-05 4.39903 1.19528e-05 10.7888 13.6849 -1.49012e-05 2.38419e-05 -73.567 45.4278 5.38847 21.6315 2.38419e-05 0 5.32324e-05 -1.46588e-05 -100.981 26.4375 1.19209e-05 -3.27826e-05 43.6754 1.7864 48.6617 0.0062 0.0497 0.0339 -45 0 0 0 0.0215 0 0 -45 0 0 0.022 0 0 -45 0 0 0.017 0 0 0 0 -0.0068 0.0873 0.0207 -45 0 0 0 0.0267 0 -80 0 0 0 0.0213 0 -90 0 0 0 0.018 0 0 0 0 -0.0067 0.0922 0.0055 -45 0 0 0 0.0266 0 -80 0 0 0 0.0228 0 -90 0 0 0 0.015 0 0 0 0 -0.0067 0.0925 -0.0113 -45 0 0 0 0.0247 0 -80 0 0 0 0.0221 0 -90 0 0 0 0.018 0 0 0 0 -0.0066 0.0935 -0.0272 -45 0 0 0 0.0163 0 -80 0 0 0 0.0171 0 -90 0 0 0 0.018 0 0 0 0 -2.23517e-06 27.303 2.38419e-05 -5.53142 3.84198e-06 -8.28005 -17.788 -5.96046e-06 -4.76837e-05 85.5381 39.7413 -15.7613 -23.1616 2.38419e-05 2.38419e-05 1.39612e-05 -1.70755e-06 61.6683 -21.9082 0 2.38419e-05 5.85681 -0.0851592 -0.310439 -0.0062 0.0497 0.0339 0 0 0 0 0.0215 0 0 0 0 0 0.022 0 0 0 0 0 0.017 0 0 0 0 0.0068 0.0873 0.0207 0 0 0 0 0.0267 0 0 0 0 0 0.0213 0 0 0 0 0 0.018 0 0 0 0 0.0067 0.0922 0.0055 0 0 0 0 0.0266 0 0 0 0 0 0.0228 0 0 0 0 0 0.015 0 0 0 0 0.0067 0.0925 -0.0113 0 0 0 0 0.0247 0 0 0 0 0 0.0221 0 0 0 0 0 0.018 0 0 0 0 0.0066 0.0935 -0.0272 0 0 0 0 0.0163 0 0 0 0 0 0.0171 0 0 0 0 0 0.018 0 0 0 0 -2.23517e-06 27.303 2.38419e-05 5.67433 16.2093 -1.58876 -7.45058e-07 17.1929 -2.38419e-05 9.71168e-06 -1.02453e-05 -4.26887e-07 
-3.48585 44.3478 -240.83 -2.62382 54.9842 -0.577247 7.00421 -4.47122 5.04787 13.3401 -54.6822 11.6268 -2.98023e-06 -48.123 0 -0.832924 12.9228 0.186286 2.23517e-06 -40.0501 7.15256e-05 11.6767 -8.48796 8.52129 -7.15399 -4.53894 5.43883 0.159099 -53.5428 0.847659 -7.45058e-07 -48.3619 -7.15256e-05 2.61286 10.7329 -0.48692 2.98023e-06 -40.2942 -2.38419e-05 -9.90655 0.809593 -5.44051 2.23517e-06 4.13415 -4.13415 -2.05954 -48.2936 -1.38724 -2.23517e-06 27.303 2.38419e-05 4.39903 1.19528e-05 10.7888 13.6849 -1.49012e-05 2.38419e-05 -73.567 45.4278 5.38847 21.6315 2.38419e-05 0 5.32324e-05 -1.46588e-05 -100.981 26.4375 1.19209e-05 -3.27826e-05 43.6754 1.7864 48.6617 0.0062 0.0497 0.0339 -45 0 0 0 0.0215 0 0 -45 0 0 0.022 0 0 -45 0 0 0.017 0 0 0 0 -0.0068 0.0873 0.0207 -45 0 0 0 0.0267 0 -80 0 0 0 0.0213 0 -90 0 0 0 0.018 0 0 0 0 -0.0067 0.0922 0.0055 -45 0 0 0 0.0266 0 -80 0 0 0 0.0228 0 -90 0 0 0 0.015 0 0 0 0 -0.0067 0.0925 -0.0113 -45 0 0 0 0.0247 0 -80 0 0 0 0.0221 0 -90 0 0 0 0.018 0 0 0 0 -0.0066 0.0935 -0.0272 -45 0 0 0 0.0163 0 -80 0 0 0 0.0171 0 -90 0 0 0 0.018 0 0 0 0 -2.23517e-06 27.303 2.38419e-05 -5.53142 3.84198e-06 -8.28005 -17.788 -5.96046e-06 -4.76837e-05 85.5381 39.7413 -15.7613 -23.1616 2.38419e-05 2.38419e-05 1.39612e-05 -1.70755e-06 61.6683 -21.9082 0 2.38419e-05 5.85681 -0.0851592 -0.310439 -0.0062 0.0497 0.0339 0 0 0 0 0.0215 0 0 0 0 0 0.022 0 0 0 0 0 0.017 0 0 0 0 0.0068 0.0873 0.0207 0 0 0 0 0.0267 0 0 0 0 0 0.0213 0 0 0 0 0 0.018 0 0 0 0 0.0067 0.0922 0.0055 0 0 0 0 0.0266 0 0 0 0 0 0.0228 0 0 0 0 0 0.015 0 0 0 0 0.0067 0.0925 -0.0113 0 0 0 0 0.0247 0 0 0 0 0 0.0221 0 0 0 0 0 0.018 0 0 0 0 0.0066 0.0935 -0.0272 0 0 0 0 0.0163 0 0 0 0 0 0.0171 0 0 0 0 0 0.018 0 0 0 0 -2.23517e-06 27.303 2.38419e-05 5.67433 16.2093 -1.58876 -7.45058e-07 17.1929 -2.38419e-05 9.71168e-06 -1.02453e-05 -4.26887e-07 
